<svg xmlns="http://www.w3.org/2000/svg" viewBox="0 0 44.5 17.17"><defs><style>.cls-1{fill:#fff;}</style></defs><g id="Layer_2" data-name="Layer 2"><g id="Camada_1" data-name="Camada 1"><path class="cls-1" d="M37,6.33a5.49,5.49,0,0,1-4.3-2.26c-.87-.94-1.56-1.69-3.11-1.69s-2.35.78-3.3,1.75a5.59,5.59,0,0,1-4.23,2.2,5.48,5.48,0,0,1-4.2-2.24c-.89-.95-1.59-1.71-3.09-1.71s-2.25.77-3.18,1.73A5.57,5.57,0,0,1,7.38,6.33C5.26,6.33,4,5.11,2.92,4A7.51,7.51,0,0,0,1.33,2.73L2.23.58A9.28,9.28,0,0,1,4.28,2.23C5.26,3.19,6,4,7.38,4s2-.71,2.83-1.6A6,6,0,0,1,14.79,0a5.8,5.8,0,0,1,4.52,2.35c.86.93,1.49,1.6,2.77,1.6S24,3.28,24.91,2.36A6.17,6.17,0,0,1,29.61,0a5.76,5.76,0,0,1,4.55,2.34C35,3.27,35.63,4,37,4s1.69-.53,2.41-1.41A5.92,5.92,0,0,1,42.73.2l.44,2.33A3.89,3.89,0,0,0,41,4.17,4.69,4.69,0,0,1,37,6.33Z"/><path class="cls-1" d="M37.05,17.17a5.54,5.54,0,0,1-4.31-2.26,3.81,3.81,0,0,0-3.1-1.69c-1.6,0-2.35.77-3.3,1.75s-2.14,2.2-4.23,2.2a5.51,5.51,0,0,1-4.2-2.24c-.89-1-1.59-1.71-3.09-1.71S12.57,14,11.64,15,9.5,17.17,7.41,17.17,4,16,3,14.88,1.25,13.22,0,13.22V10.84c2,0,3.24,1.18,4.31,2.23s1.75,1.71,3.1,1.71,2-.7,2.82-1.6a6,6,0,0,1,4.59-2.34,5.82,5.82,0,0,1,4.52,2.35c.86.92,1.48,1.59,2.77,1.59s1.93-.66,2.83-1.58a6.17,6.17,0,0,1,4.7-2.36,5.75,5.75,0,0,1,4.54,2.34c.86.93,1.48,1.6,2.87,1.6s1.69-.53,2.41-1.4a5.72,5.72,0,0,1,5-2.54v2.38A3.8,3.8,0,0,0,41,15,4.67,4.67,0,0,1,37.05,17.17Z"/></g></g></svg>