<svg xmlns="http://www.w3.org/2000/svg" viewBox="0 0 50.76 17.17"><g id="Layer_2" data-name="Layer 2"><g id="Camada_1" data-name="Camada 1"><path d="M42.23,6.33a6.55,6.55,0,0,1-4.91-2.26,4.54,4.54,0,0,0-3.54-1.69A5.06,5.06,0,0,0,30,4.13a6.66,6.66,0,0,1-4.82,2.2A6.51,6.51,0,0,1,20.4,4.09a4.65,4.65,0,0,0-3.53-1.71,4.87,4.87,0,0,0-3.62,1.73A6.68,6.68,0,0,1,8.42,6.33,7.36,7.36,0,0,1,3.33,4,8.52,8.52,0,0,0,1.52,2.73l1-2.15A10.2,10.2,0,0,1,4.88,2.23C6,3.19,6.88,4,8.42,4a4.45,4.45,0,0,0,3.22-1.6A7.21,7.21,0,0,1,16.87,0,6.92,6.92,0,0,1,22,2.35C23,3.28,23.72,4,25.19,4s2.21-.67,3.23-1.59A7.36,7.36,0,0,1,33.78,0,6.84,6.84,0,0,1,39,2.34,4.23,4.23,0,0,0,42.23,4,3.18,3.18,0,0,0,45,2.54,6.78,6.78,0,0,1,48.74.2l.51,2.33a4.45,4.45,0,0,0-2.53,1.64A5.54,5.54,0,0,1,42.23,6.33Z"/><path d="M42.26,17.17a6.59,6.59,0,0,1-4.91-2.26,4.54,4.54,0,0,0-3.54-1.69A5,5,0,0,0,30,15a6.66,6.66,0,0,1-4.82,2.2,6.55,6.55,0,0,1-4.79-2.24,4.62,4.62,0,0,0-3.53-1.71A4.84,4.84,0,0,0,13.28,15a6.68,6.68,0,0,1-4.83,2.22,7.36,7.36,0,0,1-5.09-2.29C2.28,14,1.43,13.22,0,13.22V10.84a7.12,7.12,0,0,1,4.91,2.23c1.12,1,2,1.71,3.54,1.71a4.42,4.42,0,0,0,3.22-1.6,7.24,7.24,0,0,1,5.23-2.34,6.92,6.92,0,0,1,5.16,2.35c1,.92,1.69,1.59,3.16,1.59a4.4,4.4,0,0,0,3.23-1.58,7.36,7.36,0,0,1,5.36-2.36A6.84,6.84,0,0,1,39,13.18a4.22,4.22,0,0,0,3.27,1.6A3.2,3.2,0,0,0,45,13.38a6.79,6.79,0,0,1,5.75-2.54v2.38a4.53,4.53,0,0,0-4,1.78A5.51,5.51,0,0,1,42.26,17.17Z"/></g></g></svg>