<svg xmlns="http://www.w3.org/2000/svg" viewBox="0 0 27.52 27.52"><defs><style>.cls-1{fill:#1a1a1a;stroke:#000;stroke-miterlimit:10;stroke-width:0.63px;}</style></defs><g id="Layer_2" data-name="Layer 2"><g id="Camada_1" data-name="Camada 1"><path class="cls-1" d="M13.76,15.28a5.15,5.15,0,0,0,5.07-5.21,5.08,5.08,0,1,0-10.15,0A5.15,5.15,0,0,0,13.76,15.28Zm0-9.46a4.18,4.18,0,0,1,4.11,4.25,4.19,4.19,0,0,1-4.11,4.25,4.19,4.19,0,0,1-4.12-4.25A4.19,4.19,0,0,1,13.76,5.82Z"/><path class="cls-1" d="M23.26,4.25a13.45,13.45,0,0,0-23,9.51A13.45,13.45,0,0,0,13.76,27.2a13.44,13.44,0,0,0,9.5-22.95Zm-9.5-3a12.48,12.48,0,0,1,9.67,20.37,5.19,5.19,0,0,0-2.07-3.32,8.51,8.51,0,0,0-5-1.46H11.19a8.49,8.49,0,0,0-5,1.46,5.15,5.15,0,0,0-2.07,3.32A12.47,12.47,0,0,1,13.76,1.27Zm0,25A12.44,12.44,0,0,1,5,22.6c0-3.53,3.38-4.78,6.23-4.78h5.14c2.85,0,6.17,1.25,6.23,4.78a12.44,12.44,0,0,1-8.8,3.64Z"/></g></g></svg>